<svg width="32" height="32" viewBox="0 0 32 32" fill="none" xmlns="http://www.w3.org/2000/svg">
<mask id="mask0_3936_7433" style="mask-type:alpha" maskUnits="userSpaceOnUse" x="0" y="0" width="32" height="32">
<rect width="32" height="32" fill="black"/>
</mask>
<g mask="url(#mask0_3936_7433)">
<path d="M21.332 14.6665V7.99984H23.9987V14.6665H21.332ZM14.6654 23.8665C13.8876 23.6443 13.2487 23.2109 12.7487 22.5665C12.2487 21.9221 11.9987 21.1776 11.9987 20.3332V7.99984H14.6654V23.8665ZM15.6654 29.3332C13.3543 29.3332 11.3876 28.5221 9.76536 26.8998C8.14314 25.2776 7.33203 23.3109 7.33203 20.9998V8.6665C7.33203 6.99984 7.91536 5.58317 9.08203 4.4165C10.2487 3.24984 11.6654 2.6665 13.332 2.6665C14.9987 2.6665 16.4154 3.24984 17.582 4.4165C18.7487 5.58317 19.332 6.99984 19.332 8.6665V18.6665H16.6654V8.6665C16.6431 7.73317 16.3154 6.94428 15.682 6.29984C15.0487 5.65539 14.2654 5.33317 13.332 5.33317C12.3987 5.33317 11.6098 5.65539 10.9654 6.29984C10.3209 6.94428 9.9987 7.73317 9.9987 8.6665V20.9998C9.97648 22.5776 10.5209 23.9165 11.632 25.0165C12.7431 26.1165 14.0876 26.6665 15.6654 26.6665C16.2209 26.6665 16.7487 26.5943 17.2487 26.4498C17.7487 26.3054 18.2209 26.0887 18.6654 25.7998V28.7665C18.1987 28.9443 17.7154 29.0832 17.2154 29.1832C16.7154 29.2832 16.1987 29.3332 15.6654 29.3332ZM21.332 27.9998V23.9998H17.332V21.3332H21.332V17.3332H23.9987V21.3332H27.9987V23.9998H23.9987V27.9998H21.332Z" fill="black"/>
</g>
</svg>
