<svg width="36" height="36" viewBox="0 0 36 36" fill="none" xmlns="http://www.w3.org/2000/svg">
<g clip-path="url(#clip0_2527_1119)">
<mask id="mask0_2527_1119" style="mask-type:alpha" maskUnits="userSpaceOnUse" x="0" y="0" width="36" height="36">
<rect width="36" height="36" fill="#D9D9D9"/>
</mask>
<g mask="url(#mask0_2527_1119)">
<path d="M18.4488 25.5008C20.5238 25.5008 22.2926 24.7695 23.7551 23.307C25.2176 21.8445 25.9488 20.0758 25.9488 18.0008C25.9488 15.9258 25.2176 14.157 23.7551 12.6945C22.2926 11.232 20.5238 10.5008 18.4488 10.5008C17.8988 10.5008 17.3613 10.557 16.8363 10.6695C16.3113 10.782 15.7988 10.9508 15.2988 11.1758C16.6488 11.8008 17.7176 12.7258 18.5051 13.9508C19.2926 15.1758 19.6863 16.5258 19.6863 18.0008C19.6863 19.4758 19.2926 20.8258 18.5051 22.0508C17.7176 23.2758 16.6488 24.2008 15.2988 24.8258C15.7988 25.0508 16.3113 25.2195 16.8363 25.332C17.3613 25.4445 17.8988 25.5008 18.4488 25.5008ZM17.9988 34.9508L12.9738 30.0008H5.99883V23.0258L1.04883 18.0008L5.99883 12.9758V6.00078H12.9738L17.9988 1.05078L23.0238 6.00078H29.9988V12.9758L34.9488 18.0008L29.9988 23.0258V30.0008H23.0238L17.9988 34.9508Z" fill="black"/>
</g>
</g>
<defs>
<clipPath id="clip0_2527_1119">
<rect width="36" height="36" fill="white"/>
</clipPath>
</defs>
</svg>
